<svg xmlns="http://www.w3.org/2000/svg" data-name="Layer 1" viewBox="0 0 100 125" x="0px" y="0px"><title>Artboard 11</title><path d="M93.73,85.82c.5.48,1.11.65,1.39.35a6.25,6.25,0,0,0,1.6-4.85,6.43,6.43,0,0,0-1-2.93,21.85,21.85,0,0,0-1.8-2.14c-2.3-2.54-4.94-5.39-7.81-8.42l-4.47-4.68-1.16-1.21-.3-.31-.47-.44a7.54,7.54,0,0,0-6.15-1.7,7.57,7.57,0,0,0-2.52.92,7.1,7.1,0,0,0-1.11.78l-.47.43-.31.31-2.2,2.17C64.45,60,58.13,53.93,54.75,52.81a5,5,0,0,0-1.12,1h0a4.16,4.16,0,0,0-.82,1,17.81,17.81,0,0,0,3.35,5.12c-2,1.79-4.41,3.92-7,6.35l-1.24,1.15-.32.29-.22.17a3,3,0,0,1-.46.3,3.38,3.38,0,0,1-2.15.36,3.32,3.32,0,0,1-2-1.1L40,64.51l-5.81-6-1.5-1.54a2.85,2.85,0,0,1-.61-1,2.9,2.9,0,0,1,.11-2.25,2.2,2.2,0,0,1,.3-.49A1.36,1.36,0,0,1,32.7,53l.11-.12.2-.2,1.62-1.59,3.26-3.22,6.55-6.52c4.37-4.37,8.72-8.76,12.91-13,.16-.16.21-.2.28-.27a1.63,1.63,0,0,1,.22-.18,2.56,2.56,0,0,1,.49-.29,2.9,2.9,0,0,1,3.21.52l6,5.81,2.88,2.75L71.86,38c.27.25.37.36.5.5a3.78,3.78,0,0,1,.33.45A3.45,3.45,0,0,1,72.32,43c-3,3.25-5.59,6.12-7.6,8.46-.29.33-.05,1,.51,1.57h0c.51.47,1.13.63,1.43.38,2.34-2,5.2-4.59,8.47-7.61a7.49,7.49,0,0,0,2.19-4.08,7.6,7.6,0,0,0-.76-4.91,8.11,8.11,0,0,0-.71-1.11l-.28-.34a47.1,47.1,0,0,0,4.73-3.62l.41-.35.21-.19.3-.3a6.64,6.64,0,0,0,1-1.42,6.93,6.93,0,0,0-.38-7.22,6.35,6.35,0,0,0-.61-.77l-.28-.3-.21-.22-.86-.87-.87-.86a9.08,9.08,0,0,0-1.29-1.11,6.92,6.92,0,0,0-7.21-.36,6.64,6.64,0,0,0-1.42,1l-.3.3-.18.21-.35.41a49.29,49.29,0,0,0-3.44,4.47,8.06,8.06,0,0,0-8.65-1.45,7.81,7.81,0,0,0-1.44.81,6.44,6.44,0,0,0-.65.51c-.21.18-.43.39-.54.5-4.2,4.13-8.52,8.4-12.82,12.7a14.22,14.22,0,0,0-4.65-4.36l2.36-2.35A7.64,7.64,0,0,0,39,20.39c-.14-.18-.3-.34-.46-.51s-.23-.23-.35-.36l-.63-.62-1.26-1.24-2.5-2.44C30.5,12,27.28,8.88,24.24,6L23.11,5l-.28-.26-.42-.37a6.9,6.9,0,0,0-.91-.64,7.05,7.05,0,0,0-4.12-1,6.9,6.9,0,0,0-3.72,1.41,6.27,6.27,0,0,0-.72.63c-.24.23-.32.35-.49.53l-.88,1c-2.3,2.55-4.26,4.8-5.77,6.64-.21.26.07.9.62,1.41s1,.67,1.27.48c1.85-1.52,4.1-3.48,6.64-5.77l1-.88c.15-.13.36-.34.46-.41a2.3,2.3,0,0,1,.32-.23,2.72,2.72,0,0,1,1.51-.41,2.64,2.64,0,0,1,1.5.49,2.37,2.37,0,0,1,.31.25l.14.14.26.28L20.86,9.4,22,10.63c-3.87,2.31-9.48,8-11.6,11.71L8.91,21c-.61-.56-1.36-1.2-1.6-1.47a3.07,3.07,0,0,1-.67-1.29A3.48,3.48,0,0,1,7,15.53c.12-.19-.21-.81-.77-1.35s-1.11-.64-1.39-.35a6.25,6.25,0,0,0-1.6,4.85,6.43,6.43,0,0,0,1,2.93,21.84,21.84,0,0,0,1.8,2.14c2.3,2.54,4.94,5.39,7.81,8.42l4.47,4.68,1.16,1.21.3.31.47.44a7.54,7.54,0,0,0,6.15,1.7A7.57,7.57,0,0,0,29,39.59a7.09,7.09,0,0,0,1.11-.78l.47-.43.31-.31,2-2a14.21,14.21,0,0,0,4.37,4.67L34,44l-3.22,3.26L29.22,48.9l-.2.2-.27.3a5.9,5.9,0,0,0-.53.65,7.39,7.39,0,0,0-.84,1.44,8.14,8.14,0,0,0-.12,6.4A8,8,0,0,0,29,60.56l1.57,1.52,2.16,2.09c-2.36,1-4.93,3.91-4.9,6a10.07,10.07,0,0,0,1,1.08h0a8.36,8.36,0,0,0,.94.86c2.14,0,5.12-2.6,6.05-5l.77.74,2.88,2.75a7.79,7.79,0,0,0,4.73,2.21,7.58,7.58,0,0,0,4.81-1.17,7.06,7.06,0,0,0,1-.73l.43-.41.29-.32L51.88,69c2.39-2.59,4.5-4.92,6.27-6.94a32.58,32.58,0,0,0,5.94,4.87l-2.56,2.55A7.64,7.64,0,0,0,61,79.61c.14.18.3.34.46.51s.23.23.35.36l.63.62,1.26,1.24,2.5,2.44C69.5,88,72.72,91.12,75.76,94L76.89,95l.28.26.42.37a6.9,6.9,0,0,0,.91.64,7.05,7.05,0,0,0,4.12,1,6.9,6.9,0,0,0,3.72-1.41,6.26,6.26,0,0,0,.72-.63c.24-.23.32-.35.49-.53l.88-1c2.3-2.55,4.26-4.8,5.77-6.64.21-.26-.07-.9-.62-1.41s-1-.67-1.27-.48c-1.85,1.52-4.1,3.48-6.64,5.77l-1,.88c-.15.13-.36.34-.46.41a2.3,2.3,0,0,1-.32.23,2.72,2.72,0,0,1-1.51.41,2.64,2.64,0,0,1-1.5-.49,2.36,2.36,0,0,1-.31-.25L80.47,92l-.26-.28L79.14,90.6,78,89.38c3.85-2.32,9.46-8,11.56-11.75L91.09,79c.61.56,1.36,1.2,1.6,1.47a3.08,3.08,0,0,1,.67,1.29A3.48,3.48,0,0,1,93,84.47C92.85,84.66,93.18,85.28,93.73,85.82Zm-22-62.72.41-.35.21-.18.11-.07a2,2,0,0,1,1.39-.3,1.81,1.81,0,0,1,.85.36c.08,0,.86.86,1.39,1.39l.87.86.22.21.1.1,0,0a1.25,1.25,0,0,1,.15.18,1.81,1.81,0,0,1,.36.85,2,2,0,0,1-.08.94,1.94,1.94,0,0,1-.21.43l-.07.11-.17.2-.35.41a47.83,47.83,0,0,0-3.57,4.65L71,30.5l-3.81-3.94A49,49,0,0,0,71.68,23.09ZM13.2,24.9A40.93,40.93,0,0,0,24.73,13.46Q27,15.78,29.31,18.2A41.39,41.39,0,0,0,18.07,29.47l-.74-.7Q15.2,26.75,13.2,24.9Zm16.34,6.83-2.48,2.52-.31.31-.18.17a1.82,1.82,0,0,1-.31.24A2.25,2.25,0,0,1,24,35a2.31,2.31,0,0,1-.33-.21l-.15-.13-.3-.29L22,33.24l-1.09-1A41.58,41.58,0,0,0,32.09,21.05l2.67,2.74a2.2,2.2,0,0,1-.18,2.88ZM65.24,76.21a2.2,2.2,0,0,1,.18-2.88l5-5.06,2.48-2.52.31-.31.18-.17a1.81,1.81,0,0,1,.31-.24A2.25,2.25,0,0,1,76,65a2.31,2.31,0,0,1,.33.21l.15.13.3.29L78,66.76l1.11,1.06a41.57,41.57,0,0,0-11.2,11.11Zm10,10.32Q73,84.22,70.71,81.82A41.39,41.39,0,0,0,81.91,70.51l.76.72q2.15,2,4.15,3.89A40.93,40.93,0,0,0,75.26,86.53Z"/><path d="M25.39,80.45a14.52,14.52,0,0,1-5.83-5.85c-.65-1.14-1.1-2.26-1.58-3.08a5.79,5.79,0,0,0-1.48-.1,3.6,3.6,0,0,0-1.27.12A7.89,7.89,0,0,0,15,76.21,11.77,11.77,0,0,0,23.8,85a7.85,7.85,0,0,0,4.65-.23,4.27,4.27,0,0,0,.12-1.43,4.67,4.67,0,0,0-.1-1.24C27.65,81.57,26.54,81.11,25.39,80.45Z"/><path d="M8.7,79.21a48.27,48.27,0,0,1-2.17-6.39A3.07,3.07,0,0,0,5,72.63c-.7,0-1.24.1-1.26.22a16.74,16.74,0,0,0,.37,8,21.7,21.7,0,0,0,15,15,16.69,16.69,0,0,0,8,.35c.13,0,.22-.67.21-1.43a2.5,2.5,0,0,0-.19-1.25,48.69,48.69,0,0,1-6.39-2.19A25,25,0,0,1,13.6,86.4,24.92,24.92,0,0,1,8.7,79.21Z"/><text x="0" y="115" fill="#000000" font-size="5px" font-weight="bold" font-family="'Helvetica Neue', Helvetica, Arial-Unicode, Arial, Sans-serif">Created by Gregor Cresnar</text><text x="0" y="120" fill="#000000" font-size="5px" font-weight="bold" font-family="'Helvetica Neue', Helvetica, Arial-Unicode, Arial, Sans-serif">from the Noun Project</text></svg>