<svg xmlns="http://www.w3.org/2000/svg" xmlns:xlink="http://www.w3.org/1999/xlink" version="1.1" x="0px" y="0px" viewBox="0 0 66 82.5" style="enable-background:new 0 0 66 66;" xml:space="preserve"><path d="M18.13,56.25c-1.07,0-1.93,0.86-1.93,1.93c0,1.07,0.86,1.93,1.93,1.93s1.94-0.86,1.94-1.93  C20.08,57.11,19.2,56.25,18.13,56.25z"/><path d="M60.88,45.53c0-0.12-0.04-0.23-0.09-0.33c0-0.01,0-0.02-0.01-0.02l-5.37-9.9c-1.09-1.94-3.12-3.15-5.3-3.15H28.67l-1.19-4.1  c2.26-0.11,4.5-1,6.23-2.7c0.14-0.14,0.22-0.33,0.23-0.53c0-0.2-0.08-0.39-0.22-0.53l-3.89-3.89c0.82-1.32,0.66-3.07-0.49-4.22  c-1.15-1.15-2.9-1.3-4.22-0.49l-3.89-3.89c-0.14-0.14-0.33-0.19-0.53-0.22c-0.2,0-0.39,0.08-0.53,0.23  c-3.65,3.74-3.62,9.78,0.07,13.47c0.1,0.1,0.21,0.19,0.32,0.28l-1.91,6.58h-4.99c-3.33,0-6.03,2.71-6.03,6.03v17.37  c0,1.88,1.53,3.41,3.41,3.41h1.05c0.37,3,2.93,5.33,6.03,5.33c3.11,0,5.67-2.33,6.05-5.33h2.8c0.37,3,2.93,5.33,6.03,5.33  c3.11,0,5.67-2.33,6.05-5.33h2.8c0.37,3,2.93,5.33,6.03,5.33c3.11,0,5.67-2.33,6.05-5.33h3.55c1.88,0,3.41-1.53,3.41-3.41v-2.23  c0,0,0,0,0,0v-4.68c0,0,0,0,0,0L60.88,45.53C60.88,45.53,60.88,45.53,60.88,45.53z M59.38,52.53h-1.42c-0.87,0-1.57-0.72-1.57-1.6  c0-0.87,0.71-1.57,1.57-1.57h1.42V52.53z M54.1,36l4.77,8.78H46.47c-0.66,0-1.2-0.54-1.2-1.2v-9.96h4.83  C51.75,33.63,53.29,34.54,54.1,36z M20.75,13.41L32.1,24.76c-3.17,2.56-7.86,2.37-10.79-0.56C18.38,21.27,18.19,16.58,20.75,13.41z   M21.84,26.54c1.25,0.8,2.64,1.28,4.06,1.44l1.2,4.15h-6.89L21.84,26.54z M18.13,62.76c-2.53,0-4.58-2.05-4.58-4.58  c0-2.52,2.05-4.57,4.58-4.57c2.54,0,4.6,2.05,4.6,4.57C22.73,60.7,20.67,62.76,18.13,62.76z M33,62.76c-2.53,0-4.58-2.05-4.58-4.58  c0-2.52,2.05-4.57,4.58-4.57c2.54,0,4.6,2.05,4.6,4.57C37.6,60.7,35.54,62.76,33,62.76z M47.88,62.76c-2.52,0-4.58-2.05-4.58-4.58  c0-2.52,2.05-4.57,4.58-4.57c2.54,0,4.6,2.05,4.6,4.57C52.47,60.7,50.41,62.76,47.88,62.76z M57.47,57.43h-3.55  c-0.37-2.99-2.94-5.32-6.05-5.32c-3.1,0-5.65,2.33-6.03,5.32h-2.8c-0.37-2.99-2.94-5.32-6.05-5.32c-3.1,0-5.66,2.33-6.03,5.32h-2.8  c-0.37-2.99-2.94-5.32-6.05-5.32c-3.1,0-5.66,2.33-6.03,5.32h-1.05c-1.05,0-1.91-0.86-1.91-1.91V38.15c0-2.5,2.03-4.53,4.53-4.53  h30.11v9.96c0,1.49,1.21,2.7,2.7,2.7h12.91v1.58h-1.42c-1.69,0-3.07,1.38-3.07,3.07c0,1.71,1.38,3.1,3.07,3.1h1.42v1.49  C59.38,56.57,58.52,57.43,57.47,57.43z"/><path d="M48.06,43.68h8.78l-3.45-6.36c-0.61-1.09-1.74-1.78-2.99-1.78h-3.59v6.89C46.81,43.12,47.37,43.68,48.06,43.68z"/><path d="M36.33,36.46H13.82c-0.62,0-1.13,0.51-1.13,1.13v6.28c0,0.62,0.51,1.13,1.13,1.13h22.51c0.62,0,1.13-0.51,1.13-1.13v-6.28  C37.46,36.96,36.96,36.46,36.33,36.46z"/><path d="M25.39,10.14c0.51-0.09,1.03-0.14,1.55-0.14c2.29,0,4.44,0.89,6.06,2.51c1.44,1.44,2.32,3.36,2.48,5.41  c0.03,0.39,0.36,0.69,0.75,0.69c0.02,0,0.04,0,0.06,0c0.41-0.03,0.72-0.39,0.69-0.8c-0.18-2.4-1.22-4.66-2.91-6.36  c-1.9-1.9-4.43-2.95-7.13-2.95c-0.61,0-1.22,0.05-1.81,0.16c-0.41,0.07-0.68,0.46-0.6,0.87C24.59,9.94,24.99,10.22,25.39,10.14z"/><path d="M26.67,11.8c-0.41,0-0.75,0.34-0.75,0.75s0.34,0.75,0.75,0.75c1.5,0,2.91,0.58,3.98,1.65c0.75,0.75,1.27,1.7,1.5,2.74  c0.08,0.35,0.39,0.59,0.73,0.59c0.05,0,0.11-0.01,0.16-0.02c0.4-0.09,0.66-0.49,0.57-0.89c-0.29-1.32-0.95-2.52-1.91-3.48  C30.35,12.54,28.57,11.8,26.67,11.8z"/><path d="M33.01,56.25c-1.07,0-1.93,0.86-1.93,1.93c0,1.07,0.86,1.93,1.93,1.93c1.07,0,1.94-0.86,1.94-1.93  C34.95,57.11,34.08,56.25,33.01,56.25z"/><path d="M47.88,56.25c-1.07,0-1.93,0.86-1.93,1.93c0,1.07,0.86,1.93,1.93,1.93c1.07,0,1.94-0.86,1.94-1.93  C49.83,57.11,48.95,56.25,47.88,56.25z"/><path d="M40.55,17.34c0.77,0,2.01-0.23,3.99-0.84c1.69,2.31,4.42,3.82,7.49,3.82c5.12,0,9.29-4.17,9.29-9.29  c0-0.65-0.07-1.29-0.2-1.91c3.4-2.04,3.89-2.96,3.53-3.75c-0.28-0.63-0.95-1.17-5.18,0.12c-1.7-2.27-4.4-3.75-7.44-3.75  c-5.12,0-9.29,4.17-9.29,9.29c0,0.61,0.06,1.2,0.17,1.78c-3.95,2.34-4.01,3.22-3.73,3.86C39.34,17.02,39.62,17.34,40.55,17.34z   M52.29,18.81c-0.01-0.31-0.07-0.62-0.2-0.92c-0.54-1.22-1.97-1.77-3.19-1.23c-0.46,0.2-0.81,0.54-1.05,0.93  c-0.68-0.43-1.29-0.97-1.8-1.59c2.08-0.71,4.47-1.65,6.89-2.72c2.5-1.11,4.88-2.28,6.81-3.36c0.05,0.36,0.09,0.73,0.09,1.11  c0,0.18-0.01,0.35-0.03,0.52c-0.49-0.11-1.01-0.09-1.51,0.13c-1.22,0.54-1.77,1.97-1.23,3.18c0.21,0.48,0.58,0.85,1,1.09  C56.68,17.65,54.61,18.74,52.29,18.81z M62.68,6.25c-0.38,0.31-1,0.77-2.01,1.39c-0.11-0.28-0.24-0.56-0.37-0.83  C61.38,6.5,62.17,6.33,62.68,6.25z M53.66,3.42c-0.01,0.35,0.04,0.71,0.2,1.05c0.54,1.21,1.97,1.77,3.19,1.23  c0.15-0.07,0.28-0.16,0.41-0.25c0.85,0.82,1.51,1.84,1.91,2.97c-1.95,1.11-4.42,2.34-7.04,3.5c-2.52,1.12-5.03,2.1-7.15,2.81  c-0.59-1.1-0.93-2.35-0.93-3.69c0-0.2,0.02-0.39,0.03-0.58c0.58,0.11,1.21,0.07,1.79-0.19c1.52-0.68,2.21-2.46,1.54-3.99  c-0.18-0.41-0.45-0.75-0.76-1.03c1.38-1.24,3.2-2,5.2-2C52.59,3.24,53.14,3.3,53.66,3.42z M43.35,14.3c0.11,0.3,0.24,0.6,0.38,0.88  c-1.25,0.37-2.06,0.54-2.57,0.61C41.58,15.44,42.29,14.94,43.35,14.3z"/><path d="M52.53,10.63c0.9-0.4,1.31-1.46,0.91-2.36c-0.4-0.9-1.46-1.31-2.36-0.91c-0.9,0.4-1.31,1.46-0.91,2.36  C50.57,10.62,51.63,11.03,52.53,10.63z"/><path d="M5.54,15.32c0.27,0,0.53-0.15,0.66-0.39l1.15-2.1l2.1-1.15c0.24-0.13,0.39-0.38,0.39-0.66c0-0.27-0.15-0.53-0.39-0.66  l-2.1-1.15l-1.15-2.1c-0.26-0.48-1.05-0.48-1.32,0l-1.15,2.1l-2.1,1.15c-0.24,0.13-0.39,0.38-0.39,0.66c0,0.27,0.15,0.53,0.39,0.66  l2.1,1.15l1.15,2.1C5.01,15.17,5.26,15.32,5.54,15.32z M3.56,11.02l1.09-0.59c0.13-0.07,0.23-0.17,0.3-0.3l0.59-1.09l0.59,1.09  c0.07,0.13,0.17,0.23,0.3,0.3l1.09,0.59l-1.09,0.59c-0.13,0.07-0.23,0.17-0.3,0.3L5.54,13l-0.59-1.09c-0.07-0.13-0.17-0.23-0.3-0.3  L3.56,11.02z"/><path d="M14.64,6.2h1.42c0.37,0,0.67,0.3,0.67,0.67v1.42c0,0.41,0.34,0.75,0.75,0.75s0.75-0.34,0.75-0.75V6.87  c0-0.37,0.3-0.67,0.67-0.67h1.42c0.41,0,0.75-0.34,0.75-0.75S20.72,4.7,20.31,4.7h-1.42c-0.37,0-0.67-0.3-0.67-0.67V2.62  c0-0.41-0.34-0.75-0.75-0.75s-0.75,0.34-0.75,0.75v1.42c0,0.37-0.3,0.67-0.67,0.67h-1.42c-0.41,0-0.75,0.34-0.75,0.75  S14.23,6.2,14.64,6.2z"/><path d="M8.55,28.73v-1.42c0-0.37,0.3-0.67,0.67-0.67h1.42c0.41,0,0.75-0.34,0.75-0.75s-0.34-0.75-0.75-0.75H9.21  c-0.37,0-0.67-0.3-0.67-0.67v-1.42c0-0.41-0.34-0.75-0.75-0.75c-0.41,0-0.75,0.34-0.75,0.75v1.42c0,0.37-0.3,0.67-0.67,0.67H4.96  c-0.41,0-0.75,0.34-0.75,0.75s0.34,0.75,0.75,0.75h1.42c0.37,0,0.67,0.3,0.67,0.67v1.42c0,0.41,0.34,0.75,0.75,0.75  C8.21,29.48,8.55,29.15,8.55,28.73z"/><path d="M63.95,28.96h-7.72c-0.41,0-0.75,0.34-0.75,0.75s0.34,0.75,0.75,0.75h7.72c0.41,0,0.75-0.34,0.75-0.75  S64.37,28.96,63.95,28.96z"/><path d="M63.95,32.82h-4.63c-0.41,0-0.75,0.34-0.75,0.75s0.34,0.75,0.75,0.75h4.63c0.41,0,0.75-0.34,0.75-0.75  S64.37,32.82,63.95,32.82z"/><path d="M52.76,25.1c-0.41,0-0.75,0.34-0.75,0.75s0.34,0.75,0.75,0.75h6.95c0.41,0,0.75-0.34,0.75-0.75s-0.34-0.75-0.75-0.75H52.76z  "/><text x="0" y="81" fill="#000000" font-size="5px" font-weight="bold" font-family="'Helvetica Neue', Helvetica, Arial-Unicode, Arial, Sans-serif">Created by Design Circle</text><text x="0" y="86" fill="#000000" font-size="5px" font-weight="bold" font-family="'Helvetica Neue', Helvetica, Arial-Unicode, Arial, Sans-serif">from the Noun Project</text></svg>